PathFileType	4	(X/Y/Z)	/tmp/tmp3fi8u4yx//results/MarkerData/Run_5.trc
DataRate	CameraRate	NumFrames	NumMarkers	Units	OrigDataRate	OrigDataStartFrame	OrigNumFrames
100	100	9	41	m	100	134	539
Frame#	Time	C7			CLAV			LACR			LASI			LCAL			LFAradius			LFAsuperior			LFAulna			LLEL			LMEL			LPSI			LTB1			LTB2			LTB3			LTH1			LTH2			LTH3			LTOE			LUA1			LUA2			LUA3			RACR			RASI			RCAL			RFAradius			RFAsuperior			RFAulna			RLEL			RMEL			RMT5			RPSI			RTB1			RTB2			RTB3			RTH1			RTH2			RTH3			RTOE			RUA1			RUA2			RUA3		
		X1	Y1	Z1	X2	Y2	Z2	X3	Y3	Z3	X4	Y4	Z4	X5	Y5	Z5	X6	Y6	Z6	X7	Y7	Z7	X8	Y8	Z8	X9	Y9	Z9	X10	Y10	Z10	X11	Y11	Z11	X12	Y12	Z12	X13	Y13	Z13	X14	Y14	Z14	X15	Y15	Z15	X16	Y16	Z16	X17	Y17	Z17	X18	Y18	Z18	X19	Y19	Z19	X20	Y20	Z20	X21	Y21	Z21	X22	Y22	Z22	X23	Y23	Z23	X24	Y24	Z24	X25	Y25	Z25	X26	Y26	Z26	X27	Y27	Z27	X28	Y28	Z28	X29	Y29	Z29	X30	Y30	Z30	X31	Y31	Z31	X32	Y32	Z32	X33	Y33	Z33	X34	Y34	Z34	X35	Y35	Z35	X36	Y36	Z36	X37	Y37	Z37	X38	Y38	Z38	X39	Y39	Z39	X40	Y40	Z40	X41	Y41	Z41

135	1.42	1.10316	1.53872	-0.431601	1.20346	1.44958	-0.367967	1.21988	1.5222	-0.585023	1.15867	0.964138	-0.549331	0.497847	0.282263	-0.44704	1.32194	1.30764	-0.543178	1.23057	1.23951	-0.674646	1.35757	1.24514	-0.55205	1.15425	1.22652	-0.719998	1.10058	1.20508	-0.646806	0.996331	1.04726	-0.485189	0.760014	0.372979	-0.476023	0.693071	0.350374	-0.519011	0.654907	0.280908	-0.460969	1.03801	0.828866	-0.605266	1.03238	0.689856	-0.567861	0.902794	0.624058	-0.559301	0.607155	0.0747961	-0.418173	1.19112	1.41369	-0.658178	1.11254	1.36024	-0.6753	1.16164	1.29588	-0.698856	1.11606	1.50828	-0.252795	1.14784	0.999989	-0.30539	1.072	0.264397	-0.379948	1.0257	1.20472	-0.209733	0.895174	1.31465	-0.187037	0.970817	1.16277	-0.194381	0.829946	1.37222	-0.204469	0.83248	1.36679	-0.298897	1.28197	0.164853	-0.296636	0.984338	1.05183	-0.390759	1.3277	0.467134	-0.354323	1.23489	0.396183	-0.312663	1.2266	0.318908	-0.372548	1.15071	0.880169	-0.245818	1.23683	0.841642	-0.267399	1.28374	0.697387	-0.284205	1.29509	0.184911	-0.373154	0.993331	1.44668	-0.19955	0.941507	1.46956	-0.243296	0.904111	1.41422	-0.208328
136	1.43	1.10283	1.54068	-0.430385	1.20351	1.45263	-0.365941	1.21959	1.52832	-0.581327	1.16147	0.964943	-0.550015	0.486531	0.307017	-0.454232	1.32135	1.31998	-0.53669	1.23787	1.24938	-0.672393	1.35949	1.25842	-0.544527	1.16367	1.23431	-0.721249	1.1089	1.21202	-0.649709	1.00041	1.05013	-0.488153	0.744273	0.386633	-0.474509	0.67856	0.364819	-0.519714	0.636475	0.296049	-0.462278	1.03957	0.83147	-0.605973	1.02778	0.692974	-0.563519	0.895464	0.63338	-0.557194	0.567779	0.0865519	-0.416468	1.19636	1.42176	-0.655514	1.11821	1.36772	-0.674336	1.16961	1.30476	-0.699233	1.11638	1.51069	-0.252273	1.15001	1.00215	-0.307738	1.11713	0.23031	-0.384401	1.02327	1.21682	-0.209125	0.891705	1.32693	-0.189076	0.968493	1.1744	-0.195118	0.826817	1.38365	-0.2075	0.831042	1.37791	-0.301978	1.33939	0.158322	-0.304841	0.987011	1.05568	-0.394001	1.34442	0.464972	-0.355361	1.26175	0.382005	-0.314957	1.26321	0.305612	-0.376641	1.15054	0.883575	-0.2469	1.23622	0.84358	-0.268511	1.28044	0.696915	-0.28669	1.34942	0.183096	-0.380669	0.992955	1.45367	-0.200518	0.942711	1.47764	-0.245433	0.902825	1.42416	-0.209882
137	1.44	1.10288	1.54196	-0.429372	1.20389	1.45461	-0.364415	1.21884	1.53324	-0.577522	1.16336	0.965679	-0.55004	0.473453	0.332013	-0.462984	1.32078	1.3289	-0.531631	1.24397	1.25727	-0.671091	1.36068	1.26812	-0.53905	1.17172	1.24097	-0.723057	1.11571	1.21792	-0.653097	1.00339	1.05236	-0.490735	0.731083	0.397994	-0.472414	0.666555	0.377371	-0.519845	0.618827	0.311885	-0.462467	1.04191	0.832671	-0.606326	1.02591	0.695141	-0.55919	0.892447	0.63933	-0.556341	0.531702	0.106255	-0.410539	1.20115	1.42803	-0.653598	1.12312	1.37403	-0.673946	1.17644	1.31231	-0.700087	1.11767	1.51202	-0.251368	1.15133	1.00307	-0.308914	1.16312	0.198603	-0.389589	1.02227	1.22656	-0.208402	0.889679	1.33703	-0.190658	0.967715	1.18356	-0.19557	0.825078	1.39289	-0.209752	0.830827	1.38711	-0.304364	1.39314	0.154977	-0.313045	0.988742	1.05847	-0.396495	1.3581	0.460607	-0.355918	1.2869	0.367129	-0.317397	1.29808	0.292927	-0.380716	1.14909	0.882962	-0.246953	1.23427	0.841383	-0.267578	1.27581	0.69329	-0.28778	1.39988	0.184075	-0.387996	0.993682	1.45851	-0.200811	0.944986	1.48372	-0.246775	0.902898	1.43229	-0.210774
138	1.45	1.10334	1.54288	-0.428358	1.20452	1.45571	-0.363273	1.21772	1.53682	-0.573734	1.16455	0.966556	-0.54931	0.457789	0.357399	-0.472599	1.32064	1.33399	-0.528261	1.2487	1.26276	-0.670847	1.36125	1.27357	-0.535564	1.1781	1.24614	-0.725288	1.12071	1.22241	-0.656897	1.00507	1.05403	-0.492689	0.719783	0.40708	-0.47021	0.656041	0.388355	-0.519574	0.601746	0.328758	-0.461997	1.04458	0.832549	-0.606117	1.0269	0.695956	-0.55513	0.893846	0.6407	-0.5563	0.500254	0.13328	-0.401371	1.20555	1.43228	-0.652846	1.12767	1.37888	-0.674581	1.18199	1.31801	-0.701399	1.11961	1.51248	-0.25003	1.15154	1.00344	-0.308852	1.20848	0.17033	-0.394938	1.02299	1.23358	-0.207437	0.889227	1.34432	-0.191786	0.968723	1.18987	-0.195685	0.824854	1.39948	-0.211204	0.831844	1.39372	-0.305822	1.44233	0.155064	-0.321034	0.989452	1.0601	-0.398191	1.36843	0.454071	-0.356446	1.30979	0.351843	-0.320037	1.33036	0.281005	-0.384463	1.14739	0.879308	-0.246547	1.23204	0.836166	-0.265484	1.27045	0.687436	-0.287961	1.445	0.187815	-0.394912	0.99519	1.46092	-0.200178	0.947841	1.48754	-0.246917	0.904205	1.43806	-0.211034
139	1.46	1.10427	1.54364	-0.427203	1.20537	1.45601	-0.362385	1.21636	1.53894	-0.570095	1.16543	0.967855	-0.548115	0.442379	0.383692	-0.481642	1.32117	1.33505	-0.526575	1.25191	1.26564	-0.671677	1.36129	1.27435	-0.533924	1.18242	1.24972	-0.727797	1.12371	1.22524	-0.661078	1.00552	1.05509	-0.493877	0.710608	0.414478	-0.46867	0.647074	0.398639	-0.519439	0.586411	0.346433	-0.46175	1.04729	0.831704	-0.605409	1.03026	0.695444	-0.551681	0.898702	0.637884	-0.55617	0.473606	0.164751	-0.391913	1.20929	1.43468	-0.653118	1.13169	1.38217	-0.676174	1.186	1.32164	-0.703068	1.12195	1.51221	-0.248335	1.1507	1.00368	-0.30777	1.25103	0.146678	-0.399801	1.02555	1.23764	-0.206101	0.890388	1.34813	-0.192277	0.971639	1.19319	-0.195364	0.826093	1.40273	-0.211799	0.833964	1.39694	-0.306133	1.48548	0.158754	-0.328575	0.989267	1.06039	-0.399281	1.37519	0.445927	-0.357437	1.32977	0.337067	-0.32286	1.35878	0.270461	-0.387887	1.14602	0.874093	-0.246352	1.23019	0.828985	-0.263694	1.26402	0.679639	-0.287946	1.4832	0.19417	-0.401344	0.997218	1.46097	-0.1986	0.950675	1.48896	-0.245597	0.906383	1.44084	-0.210586
140	1.47	1.10566	1.54427	-0.425918	1.20645	1.45546	-0.361727	1.21488	1.53951	-0.566738	1.16632	0.96957	-0.547044	0.431581	0.411425	-0.488681	1.32234	1.33195	-0.526309	1.2534	1.26579	-0.673456	1.36081	1.27038	-0.534015	1.1843	1.25171	-0.73041	1.12436	1.2263	-0.665588	1.0051	1.05526	-0.494454	0.704408	0.420723	-0.468454	0.64053	0.409114	-0.519961	0.574563	0.364254	-0.462478	1.04992	0.830688	-0.604577	1.03509	0.693928	-0.549481	0.905343	0.632664	-0.555518	0.451022	0.197425	-0.385387	1.21176	1.43556	-0.65376	1.13452	1.38397	-0.678273	1.18808	1.3233	-0.704955	1.12463	1.51126	-0.246512	1.14916	1.00391	-0.306142	1.28811	0.128373	-0.403698	1.02992	1.23872	-0.204363	0.893131	1.34806	-0.191783	0.976457	1.19355	-0.194432	0.828635	1.40211	-0.211401	0.837008	1.39627	-0.305339	1.52063	0.165267	-0.335436	0.988454	1.05926	-0.399999	1.3785	0.437224	-0.359049	1.34592	0.324137	-0.325663	1.38182	0.262081	-0.391138	1.14502	0.86854	-0.246588	1.22849	0.82034	-0.263111	1.25563	0.669731	-0.287756	1.51313	0.202141	-0.407291	0.999715	1.45898	-0.196269	0.953178	1.48798	-0.242871	0.909068	1.44025	-0.209268
141	1.48	1.10733	1.54454	-0.424605	1.20765	1.45394	-0.361375	1.21339	1.53852	-0.563789	1.16733	0.971224	-0.546634	0.428224	0.440691	-0.492977	1.32386	1.32476	-0.527217	1.253	1.26322	-0.675975	1.35966	1.26191	-0.535804	1.18345	1.25223	-0.732939	1.12223	1.22584	-0.670088	1.00416	1.05418	-0.494736	0.701935	0.425981	-0.469642	0.637377	0.420201	-0.521196	0.567441	0.38171	-0.464238	1.05236	0.829646	-0.604071	1.04043	0.691795	-0.5494	0.912292	0.626989	-0.554858	0.432103	0.229352	-0.383507	1.21232	1.4351	-0.654135	1.13545	1.38439	-0.680296	1.18794	1.32325	-0.706913	1.12765	1.50955	-0.244886	1.14739	1.00402	-0.304599	1.3171	0.114938	-0.406469	1.03596	1.23691	-0.202287	0.897404	1.34422	-0.189999	0.983097	1.19103	-0.192661	0.832344	1.39748	-0.209787	0.840807	1.39172	-0.303624	1.54626	0.172644	-0.341526	0.987308	1.05686	-0.400465	1.37886	0.429071	-0.361018	1.35726	0.31403	-0.328113	1.39822	0.256136	-0.394212	1.14421	0.863101	-0.2469	1.22624	0.810185	-0.263451	1.24484	0.65788	-0.286674	1.53396	0.209826	-0.41274	1.00278	1.45527	-0.193484	0.95544	1.4847	-0.239084	0.912148	1.43625	-0.206955
142	1.49	1.10901	1.54397	-0.423352	1.20879	1.45134	-0.361391	1.21197	1.53595	-0.561362	1.16836	0.972088	-0.547025	0.432488	0.470843	-0.494577	1.32535	1.31376	-0.529331	1.25049	1.2581	-0.679039	1.35749	1.24937	-0.539289	1.17985	1.25141	-0.735198	1.11711	1.22439	-0.673822	1.00298	1.05167	-0.494875	0.703414	0.430187	-0.471788	0.638194	0.431698	-0.522772	0.565399	0.398645	-0.466466	1.05459	0.828375	-0.604139	1.04547	0.689355	-0.55195	0.919003	0.621731	-0.555168	0.41753	0.259924	-0.386078	1.21076	1.43333	-0.654141	1.13409	1.38354	-0.681714	1.18544	1.32179	-0.708808	1.13101	1.50687	-0.243706	1.14577	1.00371	-0.303712	1.33601	0.104642	-0.408298	1.0435	1.23235	-0.199965	0.903156	1.33703	-0.186873	0.991425	1.18576	-0.189861	0.83717	1.38914	-0.206718	0.845227	1.38371	-0.300946	1.56185	0.178421	-0.346763	0.986129	1.05359	-0.400701	1.37684	0.421954	-0.362873	1.36307	0.306544	-0.329919	1.40733	0.251815	-0.396847	1.14342	0.857505	-0.246679	1.22309	0.798366	-0.263539	1.23255	0.645137	-0.284263	1.54557	0.215145	-0.417535	1.0065	1.45004	-0.190516	0.957739	1.47921	-0.23468	0.915791	1.4291	-0.203648
143	1.5	1.11046	1.54208	-0.42216	1.20975	1.44761	-0.361736	1.21071	1.53188	-0.559553	1.16921	0.97162	-0.547932	0.443094	0.50054	-0.493892	1.32639	1.29933	-0.532836	1.24572	1.25071	-0.682519	1.35395	1.2333	-0.544416	1.17368	1.24937	-0.737036	1.10933	1.22252	-0.675999	1.00176	1.04777	-0.494752	0.708635	0.43326	-0.47446	0.643165	0.442971	-0.524388	0.568253	0.414883	-0.468661	1.05667	0.826582	-0.604738	1.04981	0.686765	-0.55665	0.925795	0.616492	-0.556958	0.408536	0.288827	-0.39194	1.20733	1.43018	-0.654204	1.13045	1.38149	-0.682146	1.18067	1.31915	-0.710544	1.13452	1.50301	-0.242954	1.14454	1.00246	-0.303772	1.34381	0.0956891	-0.40962	1.05235	1.22526	-0.197441	0.910298	1.32697	-0.182592	1.00128	1.17791	-0.185995	0.843078	1.37761	-0.202057	0.850131	1.37266	-0.296923	1.56758	0.179944	-0.350759	0.985183	1.04975	-0.400726	1.37268	0.415259	-0.364275	1.36316	0.300106	-0.331022	1.4092	0.247254	-0.398699	1.14248	0.851218	-0.245555	1.21941	0.785183	-0.262142	1.2209	0.633024	-0.281386	1.54847	0.216189	-0.421186	1.01081	1.44328	-0.187513	0.960268	1.47152	-0.229969	0.920235	1.4191	-0.199474
